# xmcd
#
# Track frame offsets: 
#        150
#        20125
#        41212
#        61782
#        80910
#        96967
#        116052
#        135987
#        154872
#        170337
#
# Disc length: 2514 seconds
#
# Revision: 2
# Processed by: cddbd v1.4PL0 Copyright (c) Steve Scherf et al.
# Submitted via: ExactAudioCopy v0.90b4
#
DISCID=8509d00a
DTITLE=Reba McEntire - Starting Over
DYEAR=1995
DGENRE=Country
TTITLE0=Talking in Your Sleep
TTITLE1=Please Come to Boston
TTITLE2=On My Own
TTITLE3=I Won't Mention it Again
TTITLE4=You're No Good
TTITLE5=Ring on Her Finger, Time on Her Hands
TTITLE6=Five Hundred Miles Away From Home
TTITLE7=Starting Over Again
TTITLE8=You Keep Me Hangin' On
TTITLE9=By the Time I Get to Phoenix
EXTD=
EXTT0=
EXTT1=
EXTT2=
EXTT3=
EXTT4=
EXTT5=
EXTT6=
EXTT7=
EXTT8=
EXTT9=
PLAYORDER=
